HIERARCHY
ROOT hip
{
	OFFSET 0.000000 0.000000 0.000000 
	CHANNELS 6 Xposition Yposition Zposition Xrotation Zrotation Yrotation
	JOINT abdomen
	{
		OFFSET 0.000000 3.402643 0.000000 
		CHANNELS 3 Xrotation Zrotation Yrotation
		JOINT chest
		{
			OFFSET 0.000000 8.438565 -0.680529 
			CHANNELS 3 Xrotation Zrotation Yrotation
			JOINT neck
			{
				OFFSET 0.000000 10.207942 -0.272212 
				CHANNELS 3 Xrotation Zrotation Yrotation
				JOINT head
				{
					OFFSET 0.000000 3.130431 0.000000 
					CHANNELS 3 Xrotation Zrotation Yrotation
					End Site
					{
						OFFSET 0.000000 3.130435 0.000000 
					}
				}
			}
			JOINT lCollar
			{
				OFFSET 3.470700 6.669187 -0.816635 
				CHANNELS 3 Yrotation Zrotation Xrotation
				JOINT lShldr
				{
					OFFSET 3.198488 0.000000 0.000000 
					CHANNELS 3 Zrotation Yrotation Xrotation
					JOINT lForeArm
					{
						OFFSET 10.139888 0.000000 0.000000 
						CHANNELS 3 Yrotation Zrotation Xrotation
						JOINT lHand
						{
							OFFSET 8.370511 0.000000 0.000000 
							CHANNELS 3 Zrotation Yrotation Xrotation
							End Site
							{
								OFFSET 4.083176 0.000000 0.000000 
							}
						}
					}
				}
			}
			JOINT rCollar
			{
				OFFSET -3.470700 6.669187 -0.816635 
				CHANNELS 3 Yrotation Zrotation Xrotation
				JOINT rShldr
				{
					OFFSET -3.198488 0.000000 0.000000 
					CHANNELS 3 Zrotation Yrotation Xrotation
					JOINT rForeArm
					{
						OFFSET -10.139888 0.000000 0.000000 
						CHANNELS 3 Yrotation Zrotation Xrotation
						JOINT rHand
						{
							OFFSET -8.370511 0.000000 0.000000 
							CHANNELS 3 Zrotation Yrotation Xrotation
							End Site
							{
								OFFSET -4.083176 0.000000 0.000000 
							}
						}
					}
				}
			}
		}
	}
	JOINT lThigh
	{
		OFFSET 5.308129 -1.633274 1.361059 
		CHANNELS 3 Xrotation Zrotation Yrotation
		JOINT lShin
		{
			OFFSET -2.041588 -20.007561 0.000000 
			CHANNELS 3 Xrotation Zrotation Yrotation
			JOINT lFoot
			{
				OFFSET 0.000000 -19.190928 -1.224953 
				CHANNELS 3 Xrotation Yrotation Zrotation
				End Site
				{
					OFFSET 0.000000 -2.449906 4.627600 
				}
			}
		}
	}
	JOINT rThigh
	{
		OFFSET -5.308129 -1.633274 1.361059 
		CHANNELS 3 Xrotation Zrotation Yrotation
		JOINT rShin
		{
			OFFSET 2.041588 -20.007561 0.000000 
			CHANNELS 3 Xrotation Zrotation Yrotation
			JOINT rFoot
			{
				OFFSET 0.000000 -19.190928 -1.224953 
				CHANNELS 3 Xrotation Yrotation Zrotation
				End Site
				{
					OFFSET 0.000000 -2.449906 4.627600 
				}
			}
		}
	}
}
MOTION
Frames: 10
Frame Time: 0.016667
-2.873631 49.366997 -4.402791 -4.169184 -18.400787 -61.020870 40.356846 9.880045 4.838031 4.091984 2.851148 -1.426515 1.474769 2.370515 0.066598 14.490820 -13.038242 32.488209 -15.287062 -5.756551 -0.295702 -18.850727 7.135628 -8.302176 -67.473312 5.000000 -9.939641 -5.736841 -24.118460 30.133213 4.034294 5.200659 -0.267890 58.116447 55.235802 39.203568 105.992500 -5.000000 3.370574 30.473507 -1.918011 1.601760 -8.064628 30.714945 0.612571 35.636494 -6.178766 -4.813597 -5.048808 6.045317 -13.574487 12.787521 -11.546946 1.282860 38.492832 5.841902 5.077356 -28.235163 -19.459242 11.074488 
-2.872384 49.364510 -4.402800 -4.053724 -18.676048 -61.090187 40.566063 10.103275 4.875866 4.073766 2.987736 -1.583089 1.856427 2.373433 0.085894 14.635936 -13.195693 32.622765 -15.502680 -5.902839 -0.303249 -18.962112 7.756298 -8.432122 -67.685165 5.000000 -9.781731 -6.278442 -24.810478 31.241661 4.103306 5.337194 -0.274964 57.022453 55.317986 38.346497 105.841469 -5.000000 3.419373 30.497255 -1.541089 1.460965 -7.977423 30.923548 0.559705 35.819176 -6.085649 -4.793364 -5.127465 6.059477 -13.524270 13.007028 -11.444186 1.275970 38.372196 5.988010 5.200666 -28.092148 -19.391951 11.063855 
-2.876400 49.381580 -4.412593 -3.917703 -18.869244 -61.209614 40.713707 10.254849 4.899144 4.066885 3.124346 -1.710436 2.169295 2.355581 0.098461 14.783045 -13.343365 32.706078 -15.581225 -5.980859 -0.307274 -19.144119 8.228949 -8.550234 -67.901031 5.000000 -9.607088 -6.588419 -25.388971 32.001556 4.114676 5.473029 -0.291732 56.343342 55.355110 37.878922 105.895149 -5.000000 3.496491 30.542656 -1.369110 1.301048 -7.831672 31.082224 0.549762 35.805950 -5.978013 -4.730847 -5.102044 6.088336 -13.565802 13.192091 -11.316570 1.273868 38.126305 6.046591 5.214737 -27.980932 -19.265448 11.053619 
-2.883927 49.411701 -4.428907 -3.766148 -18.998587 -61.376156 40.811035 10.364380 4.918859 4.061506 3.251214 -1.798787 2.423542 2.328072 0.112488 14.932323 -13.486910 32.756908 -15.581387 -6.010117 -0.308783 -19.361443 8.602215 -8.644334 -68.131088 5.000000 -9.423453 -6.739313 -25.895348 32.522705 4.086038 5.599816 -0.298296 55.981895 55.338905 37.711868 106.076057 -5.000000 3.595847 30.622864 -1.338268 1.148272 -7.665550 31.177965 0.494597 35.679829 -5.847051 -4.562752 -5.057097 6.164921 -13.672384 13.336990 -11.139341 1.301989 37.822540 6.027956 5.159275 -27.795322 -19.135611 11.068734 
-2.891201 49.446079 -4.447977 -3.609053 -19.101448 -61.585876 40.887096 10.456619 4.928791 4.047152 3.358562 -1.867075 2.687586 2.319876 0.123595 15.089022 -13.589276 32.803345 -15.582431 -6.017246 -0.318641 -19.586981 8.980076 -8.724246 -68.343651 5.000000 -9.258688 -6.898013 -26.335438 32.995209 4.105319 5.737047 -0.295671 55.650345 55.236942 37.516773 106.324677 -5.000000 3.702100 30.781204 -1.323531 0.962023 -7.479754 31.264524 0.473751 35.521584 -5.729596 -4.405886 -5.004585 6.289619 -13.747165 13.424467 -10.963527 1.411533 37.482029 5.997890 5.057515 -27.591497 -19.026308 11.096381 
-2.897467 49.497498 -4.478073 -3.375961 -19.100920 -61.961163 40.832787 10.454859 4.947950 4.037387 3.358562 -1.867075 2.972185 2.411154 0.139402 15.248628 -13.540026 32.796478 -15.601416 -5.919718 -0.313611 -19.813963 9.370161 -8.739872 -68.479446 5.000000 -9.179411 -7.015835 -26.527933 33.181953 4.281768 5.863830 -0.302234 55.533073 54.786320 37.336773 106.782280 -5.000000 3.823723 31.241947 -1.388491 0.687927 -7.253749 31.329708 0.570862 35.199047 -5.577410 -4.242806 -4.808847 6.564520 -13.919878 13.373633 -10.746619 1.710699 37.114952 5.949480 4.928091 -27.363428 -18.986429 11.122875 
-2.903730 49.548916 -4.508170 -3.142189 -19.096680 -62.335388 40.770397 10.459272 4.977268 4.027265 3.348786 -1.886591 3.266620 2.502430 0.155204 15.423425 -13.482561 32.787354 -15.620463 -5.831943 -0.309084 -20.040270 9.760353 -8.760162 -68.624100 5.000000 -9.099618 -7.138395 -26.706495 33.369942 4.458286 6.000364 -0.309300 55.427017 54.325665 37.158573 107.239838 -5.000000 3.946141 31.713636 -1.444085 0.404555 -7.009905 31.416998 0.673009 34.871620 -5.465419 -4.072130 -4.603951 6.794918 -14.122931 13.315555 -10.552104 2.026011 36.748875 5.891594 4.806823 -27.103819 -18.945038 11.181136 
-2.903975 49.601322 -4.536253 -2.926379 -19.023037 -62.786480 40.685986 10.399649 5.019776 4.010230 3.339073 -1.828064 3.453070 2.524658 0.171578 15.563942 -13.393247 32.825256 -15.609277 -5.746799 -0.295199 -20.175003 9.986874 -8.734112 -68.559982 5.000000 -9.176438 -7.369301 -27.067516 33.533413 4.605849 6.009332 -0.319486 55.641918 54.045292 37.300232 107.551987 -5.000000 3.975444 32.167782 -1.664840 0.463937 -6.746556 31.476919 0.899348 34.509903 -5.304190 -3.924124 -4.479754 6.999995 -14.240775 13.157531 -10.403738 2.403655 36.401783 5.842393 4.679794 -26.821032 -18.844200 11.223803 
-2.902715 49.653976 -4.563830 -2.685943 -18.938726 -63.254505 40.604485 10.341238 5.083900 3.993385 3.319594 -1.759772 3.619114 2.534314 0.170118 15.703418 -13.286162 32.868145 -15.599105 -5.668779 -0.291172 -20.285124 10.176719 -8.703528 -68.444717 5.000000 -9.293442 -7.633139 -27.474087 33.675484 4.742458 5.989804 -0.318475 55.944508 53.801933 37.525120 107.824722 -5.000000 3.984381 32.618923 -1.925765 0.598781 -6.475291 31.514063 1.153386 34.145069 -5.168115 -3.774695 -4.340763 7.230975 -14.347860 12.986624 -10.271609 2.789267 36.066643 5.773745 4.568552 -26.569798 -18.778700 11.272830 
-2.899451 49.702610 -4.588399 -2.488194 -18.842957 -63.695625 40.510128 10.282146 5.125917 3.967142 3.280586 -1.700683 3.775763 2.526117 0.181225 15.813754 -13.213402 32.908447 -15.599575 -5.578380 -0.296004 -20.370758 10.329854 -8.662834 -68.283974 5.000000 -9.434141 -7.703719 -27.814558 33.655045 4.888723 5.950769 -0.316455 56.238632 53.619202 37.741795 108.041718 -5.000000 3.960589 32.967838 -2.218680 0.853413 -6.228849 31.544634 1.410086 33.792835 -5.010728 -3.621061 -4.228912 7.388218 -14.442885 12.829481 -10.172686 3.107486 35.746227 5.735119 4.496861 -26.363298 -18.706692 11.283254 
